<?xml version="1.0" encoding="utf-8"?>
<!-- Generator: Adobe Illustrator 16.0.4, SVG Export Plug-In . SVG Version: 6.00 Build 0)  -->
<!DOCTYPE svg PUBLIC "-//W3C//DTD SVG 1.1//EN" "http://www.w3.org/Graphics/SVG/1.1/DTD/svg11.dtd">
<svg version="1.1" id="Layer_1" xmlns="http://www.w3.org/2000/svg" xmlns:xlink="http://www.w3.org/1999/xlink" x="0px" y="0px"
	 width="80px" height="80px" viewBox="0 0 80 80" enable-background="new 0 0 80 80" xml:space="preserve">
<polygon fill="#E84A5F" points="40,58.002 22,58.002 22,40.001 18,40.001 18,58.002 0,58.002 0,62.002 18,62.002 18,80.002 
	22,80.002 22,62.002 40,62.002 "/>
<polygon fill="#E84A5F" points="35.556,32.726 22.828,19.999 35.556,7.271 32.728,4.443 20,17.17 7.272,4.443 4.444,7.271 
	17.171,19.999 4.444,32.726 7.272,35.555 20,22.827 32.728,35.555 "/>
<polygon fill="#FFFFFF" points="80.004,58.002 62.004,58.002 62.004,40.001 58.004,40.001 58.004,58.002 40.002,58.002 
	40.002,62.002 58.004,62.002 58.004,80.002 62.004,80.002 62.004,62.002 80.004,62.002 "/>
<polygon fill="#FFFFFF" points="75.561,32.726 62.832,19.999 75.561,7.271 72.732,4.443 60.004,17.17 47.274,4.443 44.446,7.271 
	57.175,19.999 44.446,32.726 47.274,35.555 60.004,22.827 72.732,35.555 "/>
</svg>
