<?xml version="1.0" encoding="utf-8"?>
<!-- Generator: Adobe Illustrator 16.0.4, SVG Export Plug-In . SVG Version: 6.00 Build 0)  -->
<!DOCTYPE svg PUBLIC "-//W3C//DTD SVG 1.1//EN" "http://www.w3.org/Graphics/SVG/1.1/DTD/svg11.dtd">
<svg version="1.1" xmlns="http://www.w3.org/2000/svg" xmlns:xlink="http://www.w3.org/1999/xlink" x="0px" y="0px" width="200px"
	 height="100px" viewBox="0 0 200 100" enable-background="new 0 0 200 100" xml:space="preserve">
<g id="Layer_1">
</g>
<g id="Layer_2">
	<path fill="#547ABD" d="M32.875,15h-16c-1.104,0-2,0.895-2,2v16c0,1.104,0.896,2,2,2h8.066v-8.333h-1.953V23.89h1.953v-1.866
		c0-1.216,0.304-2.134,0.911-2.756s1.62-0.934,3.038-0.934h2.431v2.777h-1.476c-0.55,0-0.904,0.087-1.063,0.261
		s-0.238,0.463-0.238,0.868v1.649h2.777l-0.348,2.777h-2.43V35h4.331c1.104,0,2-0.896,2-2V17C34.875,15.895,33.979,15,32.875,15z"/>
	<g>
		<path fill="#78CCF0" d="M86,19.813c-0.508,0.791-1.187,1.497-2.033,2.119v0.509c0,2.966-1.066,5.657-3.2,8.072
			c-2.133,2.415-4.965,3.623-8.496,3.623c-2.26,0-4.35-0.621-6.271-1.864c0.452,0.057,0.777,0.085,0.975,0.085
			c1.893,0,3.587-0.594,5.085-1.78c-0.876-0.028-1.667-0.304-2.373-0.826s-1.187-1.193-1.441-2.013
			c0.339,0.057,0.593,0.085,0.763,0.085c0.283,0,0.65-0.057,1.102-0.17c-0.933-0.198-1.716-0.671-2.352-1.419
			c-0.635-0.749-0.953-1.617-0.953-2.606v-0.042c0.622,0.339,1.243,0.508,1.864,0.508c-1.215-0.791-1.822-1.935-1.822-3.432
			c0-0.707,0.184-1.384,0.551-2.034c2.175,2.684,4.986,4.11,8.432,4.28c-0.057-0.198-0.085-0.508-0.085-0.932
			c0-1.158,0.396-2.133,1.187-2.924s1.766-1.187,2.924-1.187c1.159,0,2.147,0.438,2.966,1.313c0.848-0.141,1.724-0.48,2.627-1.017
			c-0.282,0.989-0.89,1.751-1.822,2.288C84.503,20.364,85.294,20.152,86,19.813z"/>
	</g>
	<g>
		<path fill="#1385C7" d="M118.109,16c-0.609,0-1.113,0.199-1.512,0.598S116,17.5,116,18.11c0,0.562,0.188,1.043,0.562,1.441
			s0.867,0.598,1.477,0.598s1.113-0.199,1.512-0.598s0.598-0.879,0.598-1.441c0-0.609-0.188-1.113-0.562-1.512
			S118.719,16,118.109,16z"/>
		<rect x="116" y="21.977" fill="#1385C7" width="3.867" height="12.023"/>
		<path fill="#1385C7" d="M132.77,23.032c-0.82-0.891-1.887-1.336-3.199-1.336c-1.406,0-2.578,0.656-3.516,1.969v-1.688h-3.867V34
			h3.867v-6.82c0-0.469,0.047-0.797,0.141-0.984c0.375-0.938,1.031-1.406,1.969-1.406c1.312,0,1.969,0.867,1.969,2.602V34H134
			v-7.031C134,25.235,133.59,23.922,132.77,23.032z"/>
	</g>
	<g>
		<path fill="#DC4B38" d="M174.375,27.56c0.446,0.357,0.781,0.641,1.005,0.849c0.223,0.208,0.446,0.535,0.669,0.982
			c0.224,0.446,0.335,0.922,0.335,1.428c0,1.19-0.551,2.226-1.651,3.104c-1.102,0.878-2.619,1.316-4.554,1.316
			c-1.667,0-2.946-0.342-3.84-1.026c-0.893-0.685-1.339-1.488-1.339-2.411c0-1.19,0.625-2.157,1.875-2.901
			c0.923-0.565,2.188-0.908,3.795-1.027c-0.238-0.416-0.357-0.804-0.357-1.16c0-0.209,0.015-0.357,0.045-0.446h-0.179
			c-1.25,0-2.247-0.388-2.991-1.161c-0.714-0.714-1.071-1.562-1.071-2.545c0-1.25,0.521-2.307,1.562-3.169
			c1.101-0.863,2.5-1.295,4.196-1.295h5.982l-2.679,1.473h-0.58c0.685,0.804,1.026,1.667,1.026,2.59c0,0.565-0.119,1.079-0.357,1.54
			s-0.469,0.796-0.691,1.005c-0.224,0.208-0.543,0.461-0.96,0.759v0.044c-0.327,0.328-0.491,0.581-0.491,0.76
			c0,0.208,0.148,0.431,0.446,0.669L174.375,27.56z M174.196,31.667c0-0.417-0.148-0.789-0.446-1.116s-0.893-0.788-1.786-1.384
			c-0.029,0-0.081-0.008-0.156-0.022c-0.074-0.015-0.141-0.022-0.2-0.022c-0.744,0-1.488,0.119-2.232,0.357
			c-1.131,0.417-1.696,1.042-1.696,1.875c0,0.685,0.327,1.235,0.982,1.651c0.654,0.417,1.518,0.625,2.589,0.625
			c0.923,0,1.645-0.178,2.165-0.535S174.196,32.263,174.196,31.667z M168.795,21.488c0,0.774,0.208,1.533,0.625,2.277
			c0.476,0.803,1.086,1.205,1.83,1.205c0.506,0,0.923-0.164,1.25-0.491c0.298-0.298,0.446-0.744,0.446-1.339
			c0-0.774-0.223-1.562-0.67-2.366c-0.506-0.834-1.101-1.25-1.785-1.25c-0.565,0-0.997,0.193-1.295,0.58
			C168.929,20.432,168.795,20.894,168.795,21.488z M181.518,21.578H185v1.518h-3.482v3.616H180v-3.616h-3.571v-1.518H180v-3.482
			h1.518V21.578z"/>
	</g>
	<path fill="#FFFFFF" d="M32.936,64.881h-16c-1.104,0-2,0.895-2,2v16c0,1.105,0.896,2,2,2h8.066v-8.332h-1.953v-2.777h1.953v-1.867
		c0-1.217,0.304-2.135,0.911-2.756c0.607-0.623,1.62-0.934,3.038-0.934h2.431v2.777h-1.476c-0.55,0-0.904,0.088-1.063,0.262
		s-0.238,0.463-0.238,0.867v1.65h2.777l-0.348,2.777h-2.43v8.332h4.331c1.104,0,2-0.895,2-2v-16
		C34.936,65.775,34.04,64.881,32.936,64.881z"/>
	<g>
		<path fill="#FFFFFF" d="M86.061,69.693c-0.508,0.791-1.187,1.498-2.034,2.119v0.51c0,2.965-1.066,5.656-3.199,8.072
			c-2.133,2.414-4.965,3.623-8.496,3.623c-2.26,0-4.35-0.621-6.271-1.865c0.452,0.057,0.777,0.086,0.975,0.086
			c1.893,0,3.587-0.594,5.085-1.781c-0.876-0.027-1.667-0.303-2.373-0.826c-0.706-0.521-1.187-1.193-1.441-2.012
			c0.339,0.057,0.593,0.084,0.763,0.084c0.283,0,0.65-0.057,1.102-0.17c-0.933-0.197-1.716-0.67-2.352-1.42
			c-0.635-0.748-0.953-1.617-0.953-2.605v-0.041c0.622,0.338,1.243,0.508,1.864,0.508c-1.215-0.791-1.822-1.936-1.822-3.434
			c0-0.705,0.184-1.383,0.551-2.033c2.175,2.684,4.986,4.111,8.432,4.279c-0.057-0.197-0.085-0.508-0.085-0.932
			c0-1.158,0.396-2.133,1.187-2.924s1.766-1.188,2.924-1.188s2.147,0.439,2.966,1.314c0.847-0.141,1.723-0.48,2.627-1.018
			c-0.283,0.99-0.89,1.752-1.822,2.289C84.563,70.244,85.354,70.033,86.061,69.693z"/>
	</g>
	<g>
		<path fill="#FFFFFF" d="M118.17,65.881c-0.609,0-1.113,0.199-1.512,0.598s-0.598,0.902-0.598,1.512
			c0,0.562,0.188,1.043,0.562,1.441s0.867,0.598,1.477,0.598s1.113-0.199,1.512-0.598s0.598-0.879,0.598-1.441
			c0-0.609-0.188-1.113-0.562-1.512S118.779,65.881,118.17,65.881z"/>
		<rect x="116.061" y="71.857" fill="#FFFFFF" width="3.867" height="12.023"/>
		<path fill="#FFFFFF" d="M132.83,72.912c-0.82-0.891-1.887-1.336-3.199-1.336c-1.406,0-2.578,0.656-3.516,1.969v-1.688h-3.867
			v12.023h3.867v-6.82c0-0.469,0.047-0.797,0.141-0.984c0.375-0.938,1.031-1.406,1.969-1.406c1.312,0,1.969,0.867,1.969,2.602v6.609
			h3.867V76.85C134.061,75.115,133.65,73.803,132.83,72.912z"/>
	</g>
	<g>
		<path fill="#FFFFFF" d="M174.436,77.441c0.446,0.357,0.781,0.641,1.005,0.848c0.223,0.209,0.446,0.535,0.669,0.982
			c0.224,0.447,0.335,0.922,0.335,1.428c0,1.191-0.551,2.227-1.651,3.104c-1.102,0.879-2.619,1.316-4.554,1.316
			c-1.667,0-2.946-0.342-3.84-1.025c-0.893-0.686-1.339-1.488-1.339-2.412c0-1.189,0.625-2.156,1.875-2.9
			c0.923-0.566,2.188-0.908,3.795-1.027c-0.238-0.416-0.357-0.805-0.357-1.16c0-0.209,0.015-0.357,0.045-0.447h-0.179
			c-1.25,0-2.247-0.387-2.991-1.16c-0.714-0.715-1.071-1.562-1.071-2.545c0-1.25,0.521-2.309,1.562-3.17
			c1.101-0.863,2.5-1.295,4.196-1.295h5.982l-2.679,1.473h-0.58c0.685,0.803,1.026,1.668,1.026,2.59c0,0.566-0.119,1.08-0.357,1.541
			s-0.469,0.795-0.691,1.004c-0.224,0.209-0.543,0.461-0.96,0.76v0.043c-0.327,0.328-0.491,0.582-0.491,0.76
			c0,0.209,0.148,0.432,0.446,0.67L174.436,77.441z M174.257,81.549c0-0.418-0.148-0.789-0.446-1.117
			c-0.298-0.326-0.893-0.787-1.786-1.383c-0.029,0-0.081-0.008-0.156-0.023c-0.074-0.014-0.141-0.021-0.2-0.021
			c-0.744,0-1.488,0.119-2.232,0.357c-1.131,0.416-1.696,1.041-1.696,1.875c0,0.684,0.327,1.234,0.982,1.65
			c0.654,0.418,1.518,0.625,2.589,0.625c0.923,0,1.645-0.178,2.165-0.535S174.257,82.145,174.257,81.549z M168.855,71.369
			c0,0.775,0.208,1.533,0.625,2.277c0.476,0.803,1.086,1.205,1.83,1.205c0.506,0,0.923-0.164,1.25-0.49
			c0.298-0.299,0.446-0.744,0.446-1.34c0-0.773-0.223-1.562-0.67-2.367c-0.506-0.834-1.101-1.25-1.785-1.25
			c-0.565,0-0.997,0.193-1.295,0.58C168.989,70.312,168.855,70.773,168.855,71.369z M181.578,71.459h3.482v1.518h-3.482v3.617
			h-1.518v-3.617h-3.571v-1.518h3.571v-3.482h1.518V71.459z"/>
	</g>
</g>
</svg>
